<svg width="180" height="180" viewBox="0 0 180 180" fill="none" xmlns="http://www.w3.org/2000/svg">
  <style>
    @media (prefers-color-scheme: light) {
      .bg { fill: #0b1220; }
      .fg { fill: #e6f0ff; }
      .accent { fill: #2f6bff; }
    }
    @media (prefers-color-scheme: dark) {
      .bg { fill: #0b1220; }
      .fg { fill: #e6f0ff; }
      .accent { fill: #2f6bff; }
    }
  </style>

  <rect class="bg" x="0" y="0" width="180" height="180" rx="38" />

  <!-- Subtle glow -->
  <circle cx="55" cy="52" r="44" fill="#2f6bff" opacity="0.14" />
  <circle cx="126" cy="134" r="54" fill="#2f6bff" opacity="0.10" />

  <!-- XO mark -->
  <g>
    <path class="accent" d="M54 55c0-9.4 7.6-17 17-17h10c9.4 0 17 7.6 17 17v70c0 9.4-7.6 17-17 17H71c-9.4 0-17-7.6-17-17V55Zm17-1a1 1 0 0 0-1 1v70a1 1 0 0 0 1 1h10a1 1 0 0 0 1-1V55a1 1 0 0 0-1-1H71Z" opacity="0.85" />
    <path class="fg" d="M49.2 64.4c-3-3-3-7.8 0-10.8 3-3 7.8-3 10.8 0l19 19 19-19c3-3 7.8-3 10.8 0 3 3 3 7.8 0 10.8l-19 19 19 19c3 3 3 7.8 0 10.8-3 3-7.8 3-10.8 0l-19-19-19 19c-3 3-7.8 3-10.8 0-3-3-3-7.8 0-10.8l19-19-19-19Z"/>
    <path class="fg" d="M117.2 62.7c0-13.7 11.1-24.8 24.8-24.8s24.8 11.1 24.8 24.8v54.6c0 13.7-11.1 24.8-24.8 24.8s-24.8-11.1-24.8-24.8V62.7Zm24.8-9.4c-5.2 0-9.4 4.2-9.4 9.4v54.6c0 5.2 4.2 9.4 9.4 9.4s9.4-4.2 9.4-9.4V62.7c0-5.2-4.2-9.4-9.4-9.4Z"/>
  </g>
</svg>
